<?xml version="1.0" encoding="UTF-8"?>
<svg id="Camada_2" data-name="Camada 2" xmlns="http://www.w3.org/2000/svg" xmlns:xlink="http://www.w3.org/1999/xlink" viewBox="0 0 5818.36 1470.47">
  <defs>
    <style>
      .cls-1 {
        fill: url(#Gradiente_sem_nome_272);
      }

      .cls-2 {
        fill: url(#Gradiente_sem_nome_265);
      }

      .cls-3 {
        fill: #fff;
      }

      .cls-4 {
        fill: url(#Gradiente_sem_nome_272-2);
      }
    </style>
    <linearGradient id="Gradiente_sem_nome_272" data-name="Gradiente sem nome 272" x1="460.39" y1="1695.65" x2="1439.22" y2="-186.27" gradientUnits="userSpaceOnUse">
      <stop offset="0" stop-color="#7a00ff"/>
      <stop offset="1" stop-color="#9057ff"/>
    </linearGradient>
    <linearGradient id="Gradiente_sem_nome_265" data-name="Gradiente sem nome 265" x1="-72" y1="408.34" x2="778.85" y2="558.37" gradientUnits="userSpaceOnUse">
      <stop offset="0" stop-color="#7a00ff"/>
      <stop offset="1" stop-color="#2c0066"/>
    </linearGradient>
    <linearGradient id="Gradiente_sem_nome_272-2" data-name="Gradiente sem nome 272" x1="152.58" y1="1535.55" x2="1131.41" y2="-346.37" xlink:href="#Gradiente_sem_nome_272"/>
  </defs>
  <g id="Camada_1" data-name="Camada 1">
    <g>
      <g>
        <rect class="cls-1" x="760.36" width="399.14" height="1470.47"/>
        <polygon class="cls-2" points="708.33 422.34 708.33 958.3 664.65 1028.12 407.5 686.55 0 144.94 0 0 390.43 0 415.63 33.44 634.39 324.02 708.33 422.34"/>
        <polygon class="cls-4" points="708.33 422.34 708.33 958.3 664.65 1028.12 387.84 1470.47 0 1470.47 0 1337.66 122.1 1142.68 407.5 686.55 430.81 649.34 634.39 324.02 708.33 422.34"/>
      </g>
      <g>
        <path class="cls-3" d="M1577.6,1226.61V230.24h270.5v402.83h13.62l299.69-402.83h315.26l-336.67,443.7,344.45,552.68h-323.04l-223.8-373.64-89.52,116.76v256.88h-270.5Z"/>
        <path class="cls-3" d="M2713.76,1238.29c-47.68,0-89.76-7.87-126.25-23.6-36.49-15.73-65.12-39.65-85.87-71.76-20.76-32.11-31.14-72.98-31.14-122.6,0-40.87,6.97-75.81,20.92-104.84,13.94-29.02,33.4-52.79,58.38-71.27,24.97-18.49,54.08-32.6,87.33-42.33,33.24-9.73,69.16-16.06,107.76-18.97,41.84-3.24,75.49-7.21,100.95-11.92,25.46-4.7,43.86-11.35,55.22-19.95,11.35-8.59,17.03-20.02,17.03-34.3v-1.95c0-19.46-7.46-34.38-22.38-44.76-14.92-10.38-34.06-15.57-57.41-15.57-25.63,0-46.46,5.6-62.52,16.79-16.05,11.19-25.71,28.3-28.95,51.33h-247.15c3.24-45.41,17.76-87.33,43.54-125.76,25.79-38.43,63.49-69.24,113.11-92.44,49.62-23.19,111.57-34.79,185.85-34.79,53.52,0,101.51,6.25,144.01,18.73,42.49,12.49,78.65,29.85,108.49,52.06,29.84,22.22,52.62,48.16,68.36,77.84,15.73,29.68,23.6,61.87,23.6,96.57v511.81h-251.04v-105.09h-5.84c-14.92,27.9-33.01,50.44-54.25,67.63-21.25,17.2-45.41,29.68-72.49,37.46-27.09,7.78-56.85,11.68-89.27,11.68ZM2801.34,1068.98c20.43,0,39.65-4.21,57.65-12.65,18-8.43,32.67-20.59,44.03-36.49,11.35-15.89,17.03-35.19,17.03-57.9v-62.27c-7.14,2.92-14.68,5.68-22.62,8.27-7.95,2.6-16.38,5.03-25.3,7.3-8.92,2.27-18.33,4.38-28.22,6.32-9.9,1.95-20.19,3.73-30.89,5.35-20.76,3.25-37.71,8.51-50.84,15.81-13.14,7.3-22.87,16.22-29.19,26.76-6.32,10.54-9.49,22.3-9.49,35.27,0,20.76,7.3,36.66,21.89,47.68,14.6,11.03,33.24,16.54,55.95,16.54Z"/>
        <path class="cls-3" d="M3943.34,722.59h-247.15c-1.3-15.24-6.65-28.38-16.05-39.41-9.41-11.02-21.49-19.54-36.25-25.54-14.76-6-31.06-9-48.89-9-23.03,0-42.81,4.22-59.35,12.65-16.54,8.44-24.65,20.43-24.33,36-.33,11.03,4.46,21.25,14.35,30.65,9.89,9.41,29.11,16.71,57.65,21.89l151.79,27.24c76.54,13.95,133.55,37.39,171.01,70.3,37.46,32.92,56.35,76.95,56.68,132.09-.33,53.2-16.14,99.33-47.43,138.41-31.3,39.09-73.95,69.25-127.95,90.49-54,21.24-115.55,31.87-184.63,31.87-114.17,0-203.45-23.35-267.82-70.06-64.39-46.71-100.3-108.32-107.76-184.87h266.61c3.57,23.68,15.32,41.92,35.27,54.73,19.95,12.82,45.16,19.22,75.65,19.22,24.64,0,45-4.21,61.06-12.65,16.05-8.43,24.24-20.43,24.57-36-.33-14.27-7.38-25.62-21.16-34.06-13.79-8.43-35.27-15.24-64.46-20.43l-132.33-23.35c-76.22-13.3-133.3-38.59-171.25-75.9-37.95-37.29-56.76-85.3-56.44-144.01-.33-51.89,13.38-95.92,41.11-132.09,27.73-36.16,67.46-63.73,119.19-82.71,51.73-18.97,113.11-28.46,184.15-28.46,108.01,0,193.22,22.38,255.66,67.14,62.43,44.76,95.27,106.71,98.52,185.85Z"/>
        <path class="cls-3" d="M4456.77,479.33v194.61h-492.35v-194.61h492.35ZM4059.78,300.29h268.55v685.98c0,10.38,1.78,19.06,5.35,26.03,3.57,6.98,9.08,12.16,16.54,15.57,7.46,3.4,17.03,5.11,28.7,5.11,8.1,0,17.59-.97,28.46-2.92,10.86-1.95,18.89-3.57,24.08-4.87l38.92,188.77c-12,3.57-29.11,7.95-51.33,13.14-22.22,5.18-48.57,8.59-79.06,10.22-61.63,3.24-113.36-3.16-155.2-19.22-41.84-16.05-73.3-41.43-94.38-76.14-21.09-34.7-31.3-78.16-30.65-130.39V300.29Z"/>
        <path class="cls-3" d="M4870.94,1240.23c-81.09,0-150.5-16.13-208.23-48.41-57.74-32.27-102.01-77.36-132.82-135.25-30.82-57.9-46.22-125.11-46.22-201.66s15.4-143.76,46.22-201.66c30.81-57.89,75.08-102.97,132.82-135.25,57.73-32.27,127.14-48.41,208.23-48.41s150.49,16.14,208.23,48.41c57.73,32.28,102,77.36,132.82,135.25,30.81,57.9,46.22,125.12,46.22,201.66s-15.41,143.76-46.22,201.66c-30.82,57.9-75.09,102.98-132.82,135.25-57.74,32.28-127.15,48.41-208.23,48.41ZM4872.89,1041.74c22.7,0,42.33-7.62,58.87-22.87,16.54-15.24,29.35-36.97,38.43-65.19,9.08-28.22,13.62-61.79,13.62-100.71s-4.55-72.89-13.62-100.95c-9.08-28.05-21.89-49.7-38.43-64.95-16.54-15.24-36.17-22.87-58.87-22.87-24.01,0-44.6,7.62-61.79,22.87-17.2,15.25-30.33,36.9-39.41,64.95-9.08,28.06-13.62,61.71-13.62,100.95s4.54,72.49,13.62,100.71c9.08,28.22,22.21,49.95,39.41,65.19,17.19,15.25,37.78,22.87,61.79,22.87Z"/>
        <path class="cls-3" d="M5312.39,1226.61V479.33h260.77v142.06h7.78c13.62-52.54,35.27-90.98,64.95-115.3,29.68-24.33,64.46-36.49,104.36-36.49,11.68,0,23.27.9,34.79,2.68,11.51,1.79,22.62,4.3,33.33,7.54v229.15c-13.3-4.54-29.68-7.94-49.14-10.22-19.46-2.27-36.17-3.41-50.11-3.41-26.27,0-49.87,5.92-70.79,17.76-20.92,11.84-37.38,28.38-49.38,49.62-12,21.25-18,46.14-18,74.68v389.21h-268.55Z"/>
      </g>
    </g>
  </g>
</svg>